<?xml version="1.0" encoding="utf-8"?>
<!-- Generator: Adobe Illustrator 28.3.0, SVG Export Plug-In . SVG Version: 6.00 Build 0)  -->
<svg version="1.1" id="Warstwa_1" xmlns="http://www.w3.org/2000/svg" xmlns:xlink="http://www.w3.org/1999/xlink" x="0px" y="0px"
	 viewBox="0 0 223.4 68.5" style="enable-background:new 0 0 223.4 68.5;" xml:space="preserve">
<style type="text/css">
	.st0{fill-rule:evenodd;clip-rule:evenodd;fill:#0F0A30;}
</style>
<path class="st0" d="M218.7,46.2l0.7,0.1c-1.9,1.6-3.4,3.4-4.5,5.3c-1.1,2-1.7,3.8-1.7,5.5c0,0.9,0.2,1.5,0.6,2
	c0.4,0.5,1,0.7,1.7,0.7c0.2,0,0.5,0,0.7-0.1c0.2-0.1,0.5-0.2,0.7-0.3c1-1.4,1.8-3,2.4-4.7c0.6-1.7,0.9-3.1,0.9-4.3
	c0-0.5-0.1-0.9-0.3-1.2c-0.2-0.3-0.4-0.4-0.8-0.4c-0.1,0-0.3,0-0.4,0.1c-0.1,0-0.2,0.1-0.4,0.2l-0.2-0.2l4-3c0.4,0,0.7,0.3,1,0.8
	c0.2,0.5,0.4,1.1,0.4,1.9c0,1.5-0.4,3.1-1.2,4.9c-0.8,1.7-1.9,3.3-3.3,4.8c-1.3,1.3-2.6,2.4-3.8,3.3c-1.2,0.8-2.2,1.2-2.8,1.2
	c-0.8,0-1.4-0.3-1.9-0.9c-0.5-0.6-0.7-1.4-0.7-2.4c0-2.1,0.8-4.3,2.4-6.7C213.7,50.4,215.9,48.2,218.7,46.2L218.7,46.2z M207.4,43.5
	c0.6-0.2,1.2-0.4,1.8-0.7c0.6-0.3,1.2-0.6,1.8-0.9c-0.3,0.7-0.6,1.5-0.9,2.4c-0.3,0.9-0.8,1.9-1.3,3h3.7l-2.1,1.4l-2.2,0
	c-0.6,1.6-1.3,3.6-2.3,5.8c-1,2.2-1.4,3.6-1.4,4.2c0,0.3,0.1,0.6,0.2,0.8c0.1,0.2,0.3,0.3,0.5,0.3c0.5-0.4,0.9-0.8,1.2-1.2
	c0.4-0.4,0.7-0.9,1-1.4l0.5,0.7c-1.1,1.5-2.2,2.7-3.2,3.6c-1,0.9-1.8,1.3-2.5,1.3c-0.4,0-0.8-0.2-1-0.6c-0.3-0.4-0.4-0.9-0.4-1.5
	c0-0.8,0.6-2.7,1.9-5.5c0.3-0.6,0.5-1,0.6-1.3c0.1-0.3,0.3-0.8,0.6-1.4c0.8-1.9,1.2-2.9,1.2-3.1c0-0.2-0.1-0.4-0.3-0.6
	c-0.2-0.2-0.6-0.4-1-0.7l1.3-0.9l1.3,0.1c0.1-0.6,0.4-1.4,0.7-2.3C207.1,44.2,207.3,43.7,207.4,43.5L207.4,43.5z M198.6,52.3
	l-0.5-0.1c0.2-0.2,0.3-0.5,0.4-0.7c0.1-0.2,0.1-0.4,0.1-0.6c0-0.5-0.3-1-0.8-1.4c-0.5-0.4-1.1-0.6-1.9-0.6c-0.7,0-1.3,0.2-1.9,0.5
	c-0.5,0.4-0.8,0.8-0.8,1.2c0,0.3,0.2,0.7,0.5,1c0.3,0.3,1.1,0.9,2.2,1.6c0.1,0,0.2,0.1,0.3,0.2c1.4,0.9,2,1.7,2,2.5
	c0,0.4-0.2,0.9-0.5,1.5c-0.4,0.6-0.9,1.3-1.6,2.1c-1.1,1.2-2.1,2-2.8,2.4c-0.8,0.4-1.5,0.7-2.4,0.7c-0.8,0-1.5-0.2-2.1-0.5
	c-0.6-0.4-1-0.9-1.2-1.5c0.4-0.6,0.9-1.3,1.4-2c0.6-0.7,1.3-1.4,2.1-2.1l0.4,0.2c-0.3,0.3-0.5,0.6-0.6,0.8c-0.1,0.3-0.2,0.5-0.2,0.8
	c0,0.5,0.2,0.9,0.6,1.2c0.4,0.3,1,0.5,1.7,0.5c0.8,0,1.5-0.2,2-0.5c0.6-0.3,0.9-0.7,0.9-1.2c0-0.6-0.8-1.4-2.3-2.3
	c-0.1,0-0.2-0.1-0.2-0.1c-1-0.6-1.6-1.1-2-1.6c-0.4-0.5-0.6-1-0.6-1.6c0-0.4,0.1-0.8,0.4-1.3c0.2-0.4,0.6-0.9,1.1-1.5
	c0.9-1,1.9-1.8,3-2.4c1-0.6,2-0.9,2.8-0.9c0.7,0,1.4,0.2,2,0.6c0.6,0.4,0.9,0.8,0.9,1.2c0,0.1-0.2,0.5-0.6,1.1
	C200.2,50.2,199.5,51.1,198.6,52.3L198.6,52.3z M186.7,58.8l0.1,0.7c-0.9,0.9-1.8,1.7-2.8,2.2c-0.9,0.6-1.7,0.9-2.2,0.9
	c-0.3,0-0.5-0.1-0.7-0.3c-0.2-0.2-0.2-0.5-0.2-0.8c0-0.6,0.1-1.3,0.4-2.1c0.3-0.8,0.7-1.8,1.2-2.9l-0.1,0c-1.5,1.9-3,3.4-4.3,4.5
	c-1.4,1.1-2.4,1.7-3.1,1.7c-0.4,0-0.6-0.1-0.8-0.4c-0.2-0.3-0.3-0.7-0.3-1.3c0-1,0.2-2,0.6-3.2c0.4-1.2,1-2.5,1.8-3.8
	c0.7-1.1,1.4-2.2,2.2-3c0.7-0.9,1.5-1.6,2.3-2.2c0.8-0.6,1.7-1.1,2.8-1.5c1-0.4,1.7-0.6,2.1-0.6c0.3,0,0.6,0.1,1,0.4
	c0.4,0.3,0.6,0.6,0.8,1c0.3-0.1,0.7-0.3,1-0.5c0.4-0.2,0.6-0.3,0.6-0.3c0.1,0,0.1,0,0.1,0c0,0,0.1,0.1,0.1,0.1
	c0,0.1-0.2,0.6-0.7,1.6c-0.5,1-0.9,1.9-1.3,2.8c-0.9,1.9-1.5,3.5-2,4.7c-0.4,1.3-0.7,2.2-0.7,2.8c0,0.2,0,0.4,0.1,0.5
	c0.1,0.1,0.2,0.2,0.4,0.2c0.2,0,0.4-0.1,0.7-0.3C186,59.4,186.3,59.1,186.7,58.8L186.7,58.8z M184.8,49.8c-0.2-0.5-0.4-0.9-0.8-1.2
	c-0.4-0.3-0.7-0.5-1-0.5c-0.2,0-0.5,0.1-0.8,0.4c-0.3,0.3-0.7,0.7-1.1,1.2c-0.9,1.2-1.7,2.7-2.4,4.4c-0.6,1.7-1,3-1,4
	c0,0.4,0.1,0.7,0.2,0.9c0.1,0.2,0.3,0.3,0.5,0.3c0.4,0,1-0.4,1.9-1.3c0.9-0.9,1.7-2,2.5-3.3c0.2-0.3,0.6-1.1,1.2-2.4
	c0.6-1.2,1.1-2.3,1.6-3.1l-0.1-0.1L184.8,49.8z M172,48.3c0.9-0.4,1.8-0.8,2.6-1.2s1.3-0.6,1.3-0.6c0.1,0,0.1,0,0.1,0
	c0,0,0,0.1,0.1,0.1c0,0-0.5,1-1.4,2.7c-0.9,1.8-1.8,3.6-2.6,5.5c-0.7,1.6-1.1,2.7-1.3,3.3c-0.2,0.6-0.3,1-0.3,1.3
	c0,0.2,0,0.3,0.1,0.4c0.1,0.1,0.2,0.2,0.3,0.2c0.2,0,0.5-0.2,0.9-0.6c0.4-0.4,0.8-0.9,1.2-1.7l-0.5,2.2c-1.4,1-2.5,1.7-3.2,2.1
	c-0.7,0.4-1.3,0.6-1.6,0.6c-0.3,0-0.5-0.1-0.7-0.4c-0.2-0.2-0.3-0.5-0.3-0.9c0-0.6,0.7-2.4,2-5.4C170.1,53.2,171.2,50.6,172,48.3z
	 M172.9,43.4c0.4-0.3,0.9-0.7,1.3-1.1c0.4-0.4,0.8-0.8,1.2-1.2c0.6,0.2,1.2,0.3,1.8,0.4c0.6,0.1,1.1,0.1,1.7,0.1
	c-0.3,0.7-0.8,1.2-1.5,1.7c-0.7,0.4-1.5,0.6-2.2,0.6c-0.4,0-0.7,0-1.1-0.1C173.6,43.7,173.2,43.6,172.9,43.4L172.9,43.4z
	 M144.3,62.5c1.6-3.8,2.8-6.9,3.6-9.3c0.8-2.3,1.2-4,1.2-5V48c0,0,0,0,0,0c0-0.1,0-0.2,0-0.3l0.6-0.3c1.7-0.7,2.6-1.1,2.8-1.1
	c0.2,0,0.3,0,0.3,0.1c0.1,0.1,0.1,0.2,0.1,0.4c0,0.6-0.5,2.2-1.6,4.8c-0.9,2.1-1.6,3.9-2.1,5.2l0.3,0.1c1.1-1.8,2.1-3.4,3.2-4.9
	c1.1-1.5,2.2-2.9,3.3-4.2c0.3-0.1,0.6-0.3,1.1-0.5c1.7-0.8,2.6-1.1,2.8-1.1c0.1,0,0.2,0,0.3,0.1c0.1,0.1,0.1,0.2,0.1,0.3
	c0,0.3-0.6,1.8-1.7,4.3c-1.2,2.6-2.2,5-3,7.3l0.3,0.2c0.4-0.5,0.9-1.2,1.5-2.2c2.9-4.1,5.2-7.1,6.8-8.8c0.3-0.2,0.8-0.4,1.3-0.7
	c1-0.5,1.5-0.8,1.7-0.8c0.1,0,0.2,0,0.3,0.1c0.1,0.1,0.1,0.2,0.1,0.3c0,0.6-0.7,2.4-2,5.3l-0.2,0.5c-0.7,1.6-1.3,2.9-1.7,4
	c-0.4,1-0.6,1.8-0.6,2.1c0,0.3,0.1,0.5,0.2,0.7c0.1,0.1,0.3,0.2,0.6,0.2c0.1,0,0.2,0,0.4,0c0.1,0,0.3-0.1,0.4-0.1l0.1,0.4
	c-1.6,1-2.8,1.7-3.6,2.1c-0.8,0.4-1.3,0.6-1.5,0.6c-0.2,0-0.4-0.1-0.6-0.3c-0.1-0.2-0.2-0.4-0.2-0.8c0-0.6,0.5-1.9,1.6-4.1
	c0.3-0.6,0.6-1.1,0.7-1.5c0.6-1.2,1.1-2.3,1.4-3.2c0.4-0.9,0.5-1.4,0.5-1.6c0-0.1,0-0.2-0.1-0.3c-0.1-0.1-0.1-0.1-0.2-0.1
	c-0.3,0-1.3,1-2.8,3c-1.5,2-3.3,4.5-5.2,7.6c-0.5,0.2-1.2,0.4-2,0.7c-0.9,0.3-1.4,0.5-1.7,0.6c0.7-1.7,1.5-3.8,2.6-6.3
	c1.3-3.1,1.9-4.9,1.9-5.4c0-0.1,0-0.2-0.1-0.3c0,0-0.1-0.1-0.3-0.1c-0.5,0-1.5,1-2.9,3.1c-1.4,2.1-2.9,4.6-4.4,7.7
	c-0.6,0.2-1.2,0.4-1.8,0.6C145.6,62,144.9,62.3,144.3,62.5L144.3,62.5z M132.8,57l1.5-0.1c-0.6,1.5-1.7,2.9-3.1,4.1
	c-1.5,1.2-2.7,1.8-3.6,1.8c-0.7,0-1.3-0.3-1.8-0.9c-0.5-0.6-0.7-1.3-0.7-2.2c0-1.4,0.4-2.9,1.1-4.6c0.7-1.7,1.7-3.1,2.9-4.4
	c1.2-1.2,2.4-2.2,3.8-3c1.3-0.7,2.5-1.1,3.5-1.1c0.4,0,0.7,0.1,1,0.3c0.3,0.2,0.4,0.5,0.4,0.8c0,0.5-0.2,1.1-0.7,1.7
	c-0.5,0.7-1.1,1.3-1.9,1.9c-1,0.8-2.1,1.3-3.1,1.8c-1,0.4-1.9,0.7-2.7,0.7c-0.3,0.6-0.5,1.2-0.6,1.8c-0.1,0.6-0.2,1.2-0.2,1.9
	c0,0.9,0.2,1.6,0.5,2.1c0.4,0.5,0.9,0.7,1.6,0.7c0.1,0,0.2,0,0.3,0c0.1,0,0.1,0,0.2,0c0.4-0.4,0.8-0.8,1-1.4
	C132.3,58.4,132.5,57.7,132.8,57L132.8,57z M129.8,52.2c0.2,0.1,0.4,0.1,0.6,0.2c0.3,0,0.5,0.1,0.8,0.1c0.1,0,0.2,0,0.3,0
	c0.1,0,0.3,0,0.6-0.1c0.5-0.4,1-0.8,1.3-1.3c0.3-0.5,0.5-0.9,0.5-1.3c0-0.3-0.1-0.5-0.3-0.7c-0.2-0.2-0.4-0.3-0.7-0.3
	c-0.1,0-0.2,0-0.5,0.1c0,0-0.1,0-0.1,0c-0.6,0.5-1.1,1-1.6,1.5C130.4,50.8,130.1,51.5,129.8,52.2L129.8,52.2z M123.2,43.4
	c0.4-0.3,0.8-0.7,1.2-1c0.4-0.4,0.8-0.8,1.2-1.3c0.5,0.2,1,0.3,1.6,0.4c0.5,0.1,1.1,0.1,1.6,0.1h0.3c-0.4,0.7-1,1.3-1.7,1.7
	c-0.7,0.4-1.4,0.6-2.2,0.6c-0.3,0-0.7,0-1-0.1C123.9,43.7,123.5,43.5,123.2,43.4L123.2,43.4z M122.8,47.8c0.7-0.2,1.9-0.7,3.8-1.5
	l0.2-0.1c-1.6,3.5-3.2,7.3-4.8,11.3c-1.6,4.1-2.6,6.3-2.9,6.7c-0.7,1-1.7,1.9-2.9,2.9c-1.2,0.9-2,1.4-2.3,1.4
	c-0.3,0-0.5-0.2-0.7-0.5c-0.2-0.3-0.3-0.7-0.3-1.2c0-0.4,0.1-0.8,0.2-1.2c0.1-0.4,0.3-0.8,0.5-1.3l0.6-0.5c-0.1,0.3-0.1,0.5-0.2,0.7
	c0,0.2,0,0.5,0,0.7c0,0.3,0,0.5,0.1,0.7c0.1,0.2,0.2,0.4,0.4,0.5c0.6-0.4,1.6-2.4,3.1-5.8C119.3,57.3,121,53,122.8,47.8z
	 M113.9,46.2l0.7,0.1c-1.9,1.6-3.4,3.4-4.5,5.3c-1.1,2-1.7,3.8-1.7,5.5c0,0.9,0.2,1.5,0.6,2c0.4,0.5,1,0.7,1.7,0.7
	c0.2,0,0.5,0,0.7-0.1c0.2-0.1,0.5-0.2,0.7-0.3c1-1.4,1.8-3,2.4-4.7c0.6-1.7,0.9-3.1,0.9-4.3c0-0.5-0.1-0.9-0.3-1.2
	c-0.2-0.3-0.4-0.4-0.8-0.4c-0.1,0-0.3,0-0.4,0.1c-0.1,0-0.2,0.1-0.4,0.2l-0.2-0.2l4-3c0.4,0,0.7,0.3,1,0.8c0.2,0.5,0.4,1.1,0.4,1.9
	c0,1.5-0.4,3.1-1.2,4.9c-0.8,1.7-1.9,3.3-3.3,4.8c-1.3,1.3-2.6,2.4-3.8,3.3c-1.2,0.8-2.2,1.2-2.8,1.2c-0.8,0-1.4-0.3-1.9-0.9
	c-0.5-0.6-0.7-1.4-0.7-2.4c0-2.1,0.8-4.3,2.4-6.7C108.9,50.4,111.1,48.2,113.9,46.2L113.9,46.2z M82.2,62.5c1.6-3.8,2.8-6.9,3.6-9.3
	c0.8-2.3,1.2-4,1.2-5V48c0,0,0,0,0,0c0-0.1,0-0.2,0-0.3l0.6-0.3c1.7-0.7,2.6-1.1,2.8-1.1c0.2,0,0.3,0,0.3,0.1
	c0.1,0.1,0.1,0.2,0.1,0.4c0,0.6-0.5,2.2-1.6,4.8c-0.9,2.1-1.6,3.9-2.1,5.2l0.3,0.1c1.1-1.8,2.1-3.4,3.2-4.9c1.1-1.5,2.2-2.9,3.3-4.2
	c0.3-0.1,0.6-0.3,1.1-0.5c1.7-0.8,2.6-1.1,2.8-1.1c0.1,0,0.2,0,0.3,0.1c0.1,0.1,0.1,0.2,0.1,0.3c0,0.3-0.6,1.8-1.7,4.3
	c-1.2,2.6-2.2,5-3,7.3l0.3,0.2c0.4-0.5,0.9-1.2,1.5-2.2c2.9-4.1,5.2-7.1,6.8-8.8c0.3-0.2,0.8-0.4,1.3-0.7c1-0.5,1.5-0.8,1.7-0.8
	c0.1,0,0.2,0,0.3,0.1c0.1,0.1,0.1,0.2,0.1,0.3c0,0.6-0.7,2.4-2,5.3l-0.2,0.5c-0.7,1.6-1.3,2.9-1.7,4c-0.4,1-0.6,1.8-0.6,2.1
	c0,0.3,0.1,0.5,0.2,0.7c0.1,0.1,0.3,0.2,0.6,0.2c0.1,0,0.2,0,0.4,0c0.1,0,0.3-0.1,0.4-0.1l0.1,0.4c-1.6,1-2.8,1.7-3.6,2.1
	c-0.8,0.4-1.3,0.6-1.5,0.6c-0.2,0-0.4-0.1-0.6-0.3c-0.1-0.2-0.2-0.4-0.2-0.8c0-0.6,0.5-1.9,1.6-4.1c0.3-0.6,0.6-1.1,0.7-1.5
	c0.6-1.2,1.1-2.3,1.4-3.2c0.4-0.9,0.5-1.4,0.5-1.6c0-0.1,0-0.2-0.1-0.3c-0.1-0.1-0.1-0.1-0.2-0.1c-0.3,0-1.3,1-2.8,3
	c-1.5,2-3.3,4.5-5.2,7.6c-0.5,0.2-1.2,0.4-2,0.7c-0.9,0.3-1.4,0.5-1.7,0.6c0.7-1.7,1.5-3.8,2.6-6.3c1.3-3.1,1.9-4.9,1.9-5.4
	c0-0.1,0-0.2-0.1-0.3c0,0-0.1-0.1-0.3-0.1c-0.5,0-1.5,1-2.9,3.1c-1.4,2.1-2.9,4.6-4.4,7.7c-0.6,0.2-1.2,0.4-1.8,0.6
	C83.6,62,82.9,62.3,82.2,62.5L82.2,62.5z"/>
<path class="st0" d="M185.5,31.1L206.4,0h17.1l0,37c-5.9-1.9-11.6-5.4-32.4-6C189.3,30.9,187.3,31,185.5,31.1 M203.2,28.4h5.7
	l0.5-4.8c0-0.3,0.1-0.6,0.1-1.1c0.2-2,0.4-3.6,0.6-4.9c0.1-0.8,0.2-1.4,0.3-1.9c0.1-0.4,0.2-0.9,0.2-1.2c-0.6,1.2-1.1,2.4-1.6,3.5
	c-0.6,1.1-1,2.1-1.5,3L203.2,28.4z M167,33.5L178.1,0h16.4l-10.4,31.3C179.3,31.7,173.8,32.5,167,33.5z M39.4,45L54.2,0h12.1
	c3.7,0,6.9,0.2,9.3,0.6c2.5,0.4,4.4,0.9,5.9,1.7c3.3,1.8,5.6,4.2,7,7.2c1.4,3.1,1.8,6.6,1.2,10.6c-0.6,3.8-1.9,7.3-4,10.6
	c-2.1,3.3-4.8,6.1-8.1,8.3c-3.1,2.1-6.5,3.6-10.3,4.5c-1.1,0.3-2.2,0.5-3.4,0.7c-4.1,0.2-8.4,0.5-12.8,0.7H39.4z M60.1,31.5h0.2
	c3.6,0,6.6-0.9,8.9-2.8c2.3-1.8,3.7-4.4,4.2-7.5c0.3-2.4-0.1-4.2-1.4-5.6c-1.3-1.4-3.1-2-5.6-2H66L60.1,31.5z M39.6,39.8
	c-3.4,2.1-6.8,3.8-10.1,4.8c-3.3,1.1-6.6,1.6-9.9,1.6c-6.7,0-11.8-2-15.4-5.8c-3.6-3.9-4.9-9-4-15.2c0.5-3.4,1.5-6.5,2.9-9.4
	c1.5-2.9,3.4-5.6,5.8-7.9c2.8-2.9,6-5,9.6-6.5C22.3-0.3,26.2-1,30.2-1c4.7,0,8.7,1,11.8,2.9c3.1,1.9,5.4,4.8,6.8,8.6l-15.3,5.4
	c-0.6-1.1-1.4-1.9-2.3-2.4c-0.9-0.5-2.1-0.8-3.4-0.8c-2.9,0-5.3,1-7.4,3.1c-2.1,2.1-3.4,4.8-3.9,8.1c-0.4,2.8,0.1,5,1.4,6.7
	c1.4,1.7,3.4,2.5,6.1,2.5c0.4,0,0.8,0,1.1,0c0.4,0,0.8-0.1,1.2-0.1l1.5-4.4H22l3.4-10.2h21.3L39.6,39.8z M146.8,0h-31.3l-4.9,6.2
	c-0.1,0.1-0.2,0.2-0.3,0.4c-1.8,2.3-3,4.1-3.6,5.6c0-0.9-0.1-1.9-0.2-2.9c-0.1-1-0.3-2.1-0.5-3.4L105.1,0H87.4l7.1,26.3l-5.4,16.2
	c6-0.5,11.6-0.9,16.9-1.4l4.8-14.6l16.6-18.2L117.2,40c6.2-0.6,11.8-1.3,17-1.9l1.9-5.7l0.1-0.4c1.5-4.7,2.5-8.2,2.9-10.3l3.2,15.3
	c8.5-1.1,15.6-2.2,21.7-3.1l11.3-34H159l-7.8,23.4c-0.1-2.3-0.5-5-1.2-8.1c-0.1-0.5-0.2-0.8-0.2-1L146.8,0z"/>
</svg>
