<?xml version="1.0" encoding="utf-8"?>
<!-- Generator: Adobe Illustrator 28.3.0, SVG Export Plug-In . SVG Version: 6.00 Build 0)  -->
<svg version="1.1" id="Warstwa_1" xmlns="http://www.w3.org/2000/svg" xmlns:xlink="http://www.w3.org/1999/xlink" x="0px" y="0px"
	 viewBox="0 0 141.9 147.8" style="enable-background:new 0 0 141.9 147.8;" xml:space="preserve">
<style type="text/css">
	.st0{fill:#009FE3;}
	.st1{clip-path:url(#SVGID_00000055688303401127128580000008812746110019963265_);fill:#FFFFFF;}
</style>
<rect class="st0" width="141.9" height="147.8"/>
<g>
	<defs>
		<rect id="SVGID_1_" x="27.9" y="37.4" width="92.1" height="93.1"/>
	</defs>
	<clipPath id="SVGID_00000154383476072224449320000010228035888534344893_">
		<use xlink:href="#SVGID_1_"  style="overflow:visible;"/>
	</clipPath>
	<path style="clip-path:url(#SVGID_00000154383476072224449320000010228035888534344893_);fill:#FFFFFF;" d="M71.6,41
		c18.7,0,34.8,10.4,42.1,25.3c-6.8-17-23.1-28.9-42.1-28.9c-19,0-35.3,11.9-42.1,28.9C36.8,51.4,52.9,41,71.6,41"/>
	<path style="clip-path:url(#SVGID_00000154383476072224449320000010228035888534344893_);fill:#FFFFFF;" d="M71.6,127.3
		c-17.9,0-33.3-9.4-41-23.2c7.3,15.6,22.9,26.5,41,26.5c18.1,0,33.7-10.8,41-26.5C104.9,117.8,89.5,127.3,71.6,127.3"/>
	<polygon style="clip-path:url(#SVGID_00000154383476072224449320000010228035888534344893_);fill:#FFFFFF;" points="27.9,97.5 
		34,74.3 28.3,74.3 28.3,71.2 38.1,71.2 32,94.4 38.1,94.4 38.1,97.5 	"/>
	<polygon style="clip-path:url(#SVGID_00000154383476072224449320000010228035888534344893_);fill:#FFFFFF;" points="72.6,97.5 
		68.1,84.6 68.1,97.5 64.9,97.5 64.9,71.2 68.1,71.2 68.1,84 71.8,71.2 75.4,71.2 70.8,84.2 76.2,97.5 	"/>
	<path style="clip-path:url(#SVGID_00000154383476072224449320000010228035888534344893_);fill:#FFFFFF;" d="M112.7,97.5V82.1
		c0-1,0-2.4,0.2-4.3l-4.1,9.9l-4.1-9.9c0.2,1.8,0.2,3.3,0.2,4.3v15.4h-3V71.2h3l2.9,7.5c0.2,0.5,0.5,1.4,0.9,2.8c0.3-1,0.6-2,1-2.8
		l2.9-7.4h3v26.3H112.7z"/>
	<path style="clip-path:url(#SVGID_00000154383476072224449320000010228035888534344893_);fill:#FFFFFF;" d="M148.2,98
		c-5.3,0-8.8-4.8-8.8-13.5c0-9,3.2-13.7,8.5-13.7c1.7,0,3.3,0.6,4.7,1.8v3.7c-1.5-1.7-3-2.5-4.7-2.5c-3.3,0-5.1,3.6-5.1,10.7
		c0,6.8,1.9,10.4,5.1,10.4c0.3,0,0.9-0.1,1.5-0.3v-8.3H147v-3h5.6v13.1C151.1,97.5,149.7,98,148.2,98"/>
	<path style="clip-path:url(#SVGID_00000154383476072224449320000010228035888534344893_);fill:#FFFFFF;" d="M173.8,84.4
		c0,6.8-1.7,10-5.5,10h-0.6V74.3h0.6C172.3,74.3,173.8,77.5,173.8,84.4 M177.2,84.4c0-8.8-2.9-13.1-8.9-13.1h-3.8v26.3h3.8
		C174.3,97.5,177.2,93.1,177.2,84.4"/>
	<polygon style="clip-path:url(#SVGID_00000154383476072224449320000010228035888534344893_);fill:#FFFFFF;" points="193.7,85.4 
		193.7,97.5 190.5,97.5 190.5,85.4 186.1,71.2 189.5,71.2 192.2,80.9 194.8,71.2 198.2,71.2 	"/>
	<path style="clip-path:url(#SVGID_00000154383476072224449320000010228035888534344893_);fill:#FFFFFF;" d="M217.7,97.5l-4.5-12.7
		c-0.4-1.1-0.9-2.7-1.6-4.7c0.2,2.3,0.2,4.3,0.2,6.2v11.2h-3V71.2h2.8l4.5,12.9c0.5,1.4,1,3,1.6,4.8c-0.2-2.3-0.2-4.4-0.2-6.2V71.2
		h3v26.3H217.7z"/>
	
		<rect x="233.4" y="71.2" style="clip-path:url(#SVGID_00000154383476072224449320000010228035888534344893_);fill:#FFFFFF;" width="3.2" height="26.3"/>
	<path style="clip-path:url(#SVGID_00000154383476072224449320000010228035888534344893_);fill:#FFFFFF;" d="M256,88.7h-3.8l1.4-8.5
		c0.2-1.2,0.3-2.5,0.5-4c0.2,2,0.4,3.3,0.5,4L256,88.7z M260.8,97.5l-4.9-26.3h-3.5l-4.9,26.3h3.3l1-5.8h4.8l1,5.8H260.8z"/>
</g>
</svg>
